<svg version="1.1" id="slide-one-bg" name="slide-one-bg" xmlns="http://www.w3.org/2000/svg" xmlns:xlink="http://www.w3.org/1999/xlink" x="0px" y="0px" viewBox="0 0 1200 800" enable-background="new 0 0 1200 800" xml:space="preserve">
<rect x="14.998" y="-744.052" transform="matrix(0.7741 0.6331 -0.6331 0.7741 7.5335 -56.1215)" fill="#61B4E4" width="134.797" height="1453.092"/>
<rect x="119.337" y="-658.708" transform="matrix(0.774 0.6331 -0.6331 0.774 85.1448 -102.9008)" fill="#FFFFFF" width="134.799" height="1453.092"/>
<polygon fill="#61B4E4" points="505.555,1263.576 401.211,1178.234 1321.199,53.468 1425.543,138.812 "/>
<rect x="950.319" y="17.323" transform="matrix(0.774 0.6331 -0.6331 0.774 700.9439 -476.2733)" fill="#5C6670" width="134.8" height="1453.091"/>
<rect x="223.677" y="-573.361" transform="matrix(0.774 0.6331 -0.6331 0.774 162.756 -149.6772)" fill="#70182E" width="134.801" height="1453.091"/>
<rect x="328.02" y="-488.016" transform="matrix(0.774 0.6331 -0.6331 0.774 240.3705 -196.4562)" fill="#00263D" width="134.8" height="1453.093"/>
<rect x="433.052" y="-402.108" transform="matrix(0.7741 0.6331 -0.6331 0.7741 318.4774 -243.5385)" fill="#EB0029" width="134.8" height="1453.093"/>
<rect x="537.395" y="-316.762" transform="matrix(0.7741 0.6331 -0.6331 0.7741 396.0964 -290.3189)" fill="#EABEDB" width="134.798" height="1453.09"/>
<rect x="1049.108" y="96.047" transform="matrix(0.7741 0.6331 -0.6331 0.7741 773.046 -521.0129)" fill="#6A813B" width="134.796" height="1453.098"/>
<rect x="641.734" y="-231.419" transform="matrix(0.774 0.6331 -0.6331 0.774 473.7194 -337.0996)" fill="#00263D" width="134.8" height="1453.092"/>
<rect x="743.992" y="-147.78" transform="matrix(0.774 0.6331 -0.6331 0.774 549.7692 -382.94)" fill="#A4C6D3" width="134.797" height="1453.095"/>
</svg>
