<?xml version="1.0" encoding="utf-8"?>
<!-- Generator: Adobe Illustrator 16.0.4, SVG Export Plug-In . SVG Version: 6.00 Build 0)  -->
<!DOCTYPE svg PUBLIC "-//W3C//DTD SVG 1.1//EN" "http://www.w3.org/Graphics/SVG/1.1/DTD/svg11.dtd">
<svg version="1.1" id="Layer_1" xmlns="http://www.w3.org/2000/svg" xmlns:xlink="http://www.w3.org/1999/xlink" x="0px" y="0px"
	 width="592.375px" height="155.905px" viewBox="157.273 71.436 592.375 155.905"
	 enable-background="new 157.273 71.436 592.375 155.905" xml:space="preserve">
<g>
	<path fill="#FFFFFF" d="M209.029,113.353v113.988h-51.756V71.436h66.417c20.226,0,35.905,4.494,47.04,13.477
		c12.407,10.051,18.612,22.806,18.612,38.263c0,15.762-7.693,29.051-23.075,39.861l29.832,64.304h-54.307l-25.112-50.255v-40.09
		h4.079c10.877,0,16.317-4.187,16.317-12.563c0-7.384-6.29-11.079-18.867-11.079L209.029,113.353L209.029,113.353z"/>
	<path fill="#FFFFFF" d="M357.795,71.436v155.905h-51.756V71.436H357.795z"/>
	<path fill="#FFFFFF" d="M458.328,116.208V227.34h-51.757V116.208h-39.646V71.436h130.92v44.773L458.328,116.208L458.328,116.208z"
		/>
	<path fill="#FFFFFF" d="M599.284,116.208V227.34h-51.756V116.208h-39.646V71.436h130.921v44.773L599.284,116.208L599.284,116.208z"
		/>
	<path fill="#FFFFFF" d="M746.333,132.084v34.722h-33.782c-4.591,0-7.841,0.61-9.752,1.828c-1.912,1.218-2.867,3.274-2.867,6.167
		c0,3.275,0.976,5.425,2.932,6.454c1.955,1.028,5.949,1.542,11.982,1.542h34.801v44.544h-40.663
		c-19.123,0-33.74-4.092-43.854-12.278c-10.114-8.184-15.17-20.006-15.17-35.464v-61.106c0-14.924,4.781-26.498,14.343-34.722
		c9.561-8.223,23.011-12.335,40.347-12.335h45v44.773h-33.017c-8.925,0-13.387,2.589-13.387,7.767c0,3.046,1.062,5.16,3.188,6.338
		c2.123,1.182,5.906,1.771,11.347,1.771L746.333,132.084L746.333,132.084z"/>
</g>
</svg>
